name rise45.9887peak57.8056fall74.9286.mot
datacolumns 19
datarows 17
range 18.21326700000000 18.23992800000000
endheader
time	ground_force1_vx	ground_force1_vy	ground_force1_vz	ground_force1_px	ground_force1_py	ground_force1_pz	ground_force2_vx	ground_force2_vy	ground_force2_vz	ground_force2_px	ground_force2_py	ground_force2_pz	ground_torque1_x	ground_torque1_y	ground_torque1_z	ground_torque2_x	ground_torque2_y	ground_torque2_z	
18.21326700000000	-6.89447800000000	41.07706000000000	-10.06799000000000	0.30661200000000	0.00000000000000	0.11000400000000	-46.65285700000000	795.36620900000003	-59.06477800000000	0.10190400000000	0.00000000000000	-0.08244400000000	0.00000000000000	-6.05272600000000	0.00000000000000	0.00000000000000	-17.75494900000000	0.00000000000000	
18.21493600000000	-7.50502000000000	48.16885400000000	-11.32598100000000	0.31036700000000	0.00000000000000	0.11096800000000	-47.26676700000000	792.68699900000001	-58.76042900000000	0.10115500000000	0.00000000000000	-0.08235300000000	0.00000000000000	-6.89673300000000	0.00000000000000	0.00000000000000	-17.71014700000000	0.00000000000000	
18.21659700000000	-7.96908400000000	55.35601800000000	-12.46996300000000	0.31373800000000	0.00000000000000	0.11185900000000	-47.90108700000000	789.88673400000005	-58.42889400000000	0.10040000000000	0.00000000000000	-0.08225800000000	0.00000000000000	-7.69081500000000	0.00000000000000	0.00000000000000	-17.66731600000000	0.00000000000000	
18.21826300000000	-8.26741700000000	62.54640200000000	-13.47297200000000	0.31679400000000	0.00000000000000	0.11268600000000	-48.55549900000000	786.96382600000004	-58.07008900000000	0.09964100000000	0.00000000000000	-0.08215800000000	0.00000000000000	-8.41789000000000	0.00000000000000	0.00000000000000	-17.62648100000000	0.00000000000000	
18.21993200000000	-8.38882300000000	69.67015200000000	-14.31695100000000	0.31958900000000	0.00000000000000	0.11345900000000	-49.22957600000000	783.91663400000004	-57.68396800000000	0.09887700000000	0.00000000000000	-0.08205500000000	0.00000000000000	-9.06594100000000	0.00000000000000	0.00000000000000	-17.58764900000000	0.00000000000000	
18.22160000000000	-8.32999900000000	76.68187800000000	-14.99287300000000	0.32216400000000	0.00000000000000	0.11418400000000	-49.92277400000000	780.74345900000003	-57.27052500000000	0.09810900000000	0.00000000000000	-0.08194700000000	0.00000000000000	-9.62820800000000	0.00000000000000	0.00000000000000	-17.55081100000000	0.00000000000000	
18.22327000000000	-8.09476300000000	83.56045899999999	-15.50012100000000	0.32455600000000	0.00000000000000	0.11486800000000	-50.63443700000000	777.44255699999997	-56.82979500000000	0.09733900000000	0.00000000000000	-0.08183500000000	0.00000000000000	-10.10291100000000	0.00000000000000	0.00000000000000	-17.51593800000000	0.00000000000000	
18.22493500000000	-7.69282600000000	90.30686500000000	-15.84527600000000	0.32679200000000	0.00000000000000	0.11551500000000	-51.36378900000000	774.01213499999994	-56.36185000000000	0.09656600000000	0.00000000000000	-0.08171800000000	0.00000000000000	-10.49261400000000	0.00000000000000	0.00000000000000	-17.48298200000000	0.00000000000000	
18.22659500000000	-7.13829500000000	96.94055299999999	-16.04052900000000	0.32889500000000	0.00000000000000	0.11612900000000	-52.10993700000000	770.45036200000004	-55.86680700000000	0.09579100000000	0.00000000000000	-0.08159700000000	0.00000000000000	-10.80334000000000	0.00000000000000	0.00000000000000	-17.45187600000000	0.00000000000000	
18.22827000000000	-6.44808000000000	103.49495000000000	-16.10191000000000	0.33088600000000	0.00000000000000	0.11671400000000	-52.87187000000000	766.75537199999997	-55.34482100000000	0.09501500000000	0.00000000000000	-0.08147200000000	0.00000000000000	-11.04355900000000	0.00000000000000	0.00000000000000	-17.42253600000000	0.00000000000000	
18.22993100000000	-5.64034800000000	110.01258600000000	-16.04750900000000	0.33277900000000	0.00000000000000	0.11727200000000	-53.64846100000000	762.92526899999996	-54.79608700000000	0.09424000000000	0.00000000000000	-0.08134200000000	0.00000000000000	-11.22314400000000	0.00000000000000	0.00000000000000	-17.39485400000000	0.00000000000000	
18.23160200000000	-4.73314000000000	116.54031500000001	-15.89584500000000	0.33458900000000	0.00000000000000	0.11780600000000	-54.43846600000000	758.95813799999996	-54.22084500000000	0.09346500000000	0.00000000000000	-0.08120800000000	0.00000000000000	-11.35240100000000	0.00000000000000	0.00000000000000	-17.36870600000000	0.00000000000000	
18.23326900000000	-3.74324100000000	123.12499600000000	-15.66447300000000	0.33632600000000	0.00000000000000	0.11831800000000	-55.24052300000000	754.85205199999996	-53.61937400000000	0.09269300000000	0.00000000000000	-0.08106900000000	0.00000000000000	-11.44122800000000	0.00000000000000	0.00000000000000	-17.34394600000000	0.00000000000000	
18.23493200000000	-2.68534000000000	129.80989900000000	-15.36891600000000	0.33799900000000	0.00000000000000	0.11880900000000	-56.05316000000000	750.60507700000005	-52.99199400000000	0.09192300000000	0.00000000000000	-0.08092600000000	0.00000000000000	-11.49844800000000	0.00000000000000	0.00000000000000	-17.32040900000000	0.00000000000000	
18.23659900000000	-1.57149800000000	136.63197600000001	-15.02192700000000	0.33961600000000	0.00000000000000	0.11928200000000	-56.87479200000000	746.21528799999999	-52.33907000000000	0.09115800000000	0.00000000000000	-0.08077800000000	0.00000000000000	-11.53133600000000	0.00000000000000	0.00000000000000	-17.29791100000000	0.00000000000000	
18.23827100000000	-0.41091400000000	143.62006600000001	-14.63310400000000	0.34118400000000	0.00000000000000	0.11973800000000	-57.70372400000000	741.68077400000004	-51.66100700000000	0.09039700000000	0.00000000000000	-0.08062500000000	0.00000000000000	-11.54535600000000	0.00000000000000	0.00000000000000	-17.27624800000000	0.00000000000000	
18.23992800000000	0.79005600000000	150.79398800000001	-14.20880300000000	0.34270600000000	0.00000000000000	0.12017700000000	-58.53815900000000	736.99965099999997	-50.95825200000000	0.08964200000000	0.00000000000000	-0.08046700000000	0.00000000000000	-11.54406900000000	0.00000000000000	0.00000000000000	-17.25519700000000	0.00000000000000	
